<?xml version="1.0" standalone="no"?>
<!DOCTYPE svg PUBLIC "-//W3C//DTD SVG 20010904//EN"
 "http://www.w3.org/TR/2001/REC-SVG-20010904/DTD/svg10.dtd">
<svg version="1.0" xmlns="http://www.w3.org/2000/svg"
 width="1024.000000pt" height="1024.000000pt" viewBox="0 0 1024.000000 1024.000000"
 preserveAspectRatio="xMidYMid meet">
<metadata>
Created by potrace 1.14, written by Peter Selinger 2001-2017
</metadata>
<g transform="translate(0.000000,1024.000000) scale(0.100000,-0.100000)"
fill="#000000" stroke="none">
<path d="M5308 9170 c24 -83 3 -158 -59 -214 -21 -20 -44 -36 -49 -36 -6 0
-10 -134 -10 -380 0 -331 2 -380 15 -380 29 0 91 -75 104 -123 l11 -47 591 0
592 0 -134 136 c-74 75 -139 141 -146 147 -190 186 -878 877 -884 890 -6 10
-14 15 -19 12 -4 -3 -10 -2 -13 2 -2 5 -2 1 1 -7z"/>
<path d="M6710 7026 l0 -953 51 -7 c64 -9 132 -43 182 -91 47 -44 97 -147 97
-197 l0 -38 190 0 190 0 0 135 0 134 -48 49 c-108 110 -105 271 7 379 l41 40
-2 392 c-3 385 -3 392 17 396 16 4 142 2 228 -4 16 -1 17 -27 17 -400 l0 -399
-28 13 c-15 8 -43 16 -62 17 l-35 3 -3 -254 -2 -254 47 7 c26 3 52 11 57 16
27 27 31 6 28 -163 l-3 -173 31 -22 c17 -13 36 -20 42 -16 7 4 8 3 4 -4 -4 -6
10 -26 30 -44 20 -18 51 -54 69 -80 17 -27 35 -45 40 -40 5 4 5 1 1 -6 -5 -7
2 -36 14 -65 28 -64 37 -192 21 -279 -13 -68 -67 -188 -104 -228 -43 -48 -132
-117 -180 -138 -92 -43 -159 -52 -389 -52 l-216 0 -1 -469 c-1 -500 -2 -513
-51 -582 -12 -16 -18 -34 -14 -40 4 -7 3 -9 -3 -6 -6 4 -28 -9 -49 -27 -35
-30 -99 -65 -129 -71 -5 -1 -81 -3 -167 -3 l-158 -2 0 -380 0 -380 29 0 c66 0
160 -62 190 -127 7 -15 17 -36 22 -45 5 -10 9 -34 9 -53 l0 -35 -516 0 -517 0
7 41 c18 113 122 219 216 219 22 0 31 5 35 23 3 12 4 182 3 377 l-3 355 -822
3 -823 2 0 -380 0 -380 26 0 c51 0 104 -23 147 -64 49 -47 72 -92 80 -153 l5
-42 -126 -3 c-70 -2 -304 -2 -519 0 -449 3 -411 -7 -372 97 36 95 125 165 213
165 l26 0 0 379 0 379 -172 4 c-190 4 -229 14 -294 75 l-31 29 0 -28 c0 -30
-28 -68 -50 -68 -12 0 -11 -4 1 -22 20 -28 20 -48 1 -48 -8 0 -15 3 -15 8 0 4
-15 23 -33 42 -46 48 -59 75 -51 105 8 33 40 55 81 55 l33 0 -17 28 c-10 15
-26 33 -36 40 -13 10 -15 17 -8 26 7 9 11 173 10 484 l0 472 -190 0 -189 0 0
-140 c0 -77 -2 -140 -4 -140 -2 0 -23 7 -46 15 -86 30 -80 48 -80 -240 0 -284
-6 -265 76 -240 27 8 50 15 52 15 1 0 2 -155 2 -345 0 -228 3 -345 10 -345 6
0 8 10 5 23 -4 15 1 32 16 50 29 37 83 35 112 -5 18 -24 18 -30 7 -58 -16 -38
-43 -54 -81 -46 -26 5 -28 3 -31 -32 l-3 -37 -212 0 -213 1 0 -130 0 -129 675
-674 675 -675 0 331 0 331 258 -2 257 -3 3 -414 c2 -391 1 -413 -15 -408 -10
3 -45 16 -78 28 -48 19 -79 23 -160 23 -156 -1 -269 -46 -370 -148 -76 -77
-131 -184 -145 -287 -6 -39 -9 -73 -8 -74 15 -8 60 -45 56 -45 -2 0 198 -202
446 -450 l450 -450 2277 0 2278 0 6 20 c9 29 48 52 82 48 22 -2 27 1 25 14 -3
20 15 59 32 70 21 14 66 8 86 -12 26 -26 26 -81 0 -105 -13 -12 -30 -16 -55
-13 -24 3 -35 0 -35 -9 0 -11 103 -13 535 -13 l535 0 0 2545 0 2546 -30 29
c-16 16 -30 26 -30 21 0 -18 -54 -61 -77 -61 -33 0 -73 42 -73 78 0 29 26 62
48 62 7 0 12 4 12 10 0 17 -2209 2220 -2226 2220 -15 0 -15 -2 -1 -23 10 -15
12 -29 6 -38 -7 -11 -13 -9 -34 13 -32 34 -34 78 -4 78 21 0 21 0 -2 25 -13
13 -34 25 -46 25 -15 0 -21 5 -17 14 3 8 -16 35 -44 64 l-49 50 -126 -2 -127
-1 0 -62 0 -63 -65 0 -65 0 -1 -72 c0 -40 -3 -67 -6 -59 -3 8 -133 142 -289
298 l-284 283 0 -954z m235 -226 c19 -8 19 -9 -2 -9 -12 -1 -25 4 -28 9 -7 12
2 12 30 0z m-63 -46 c-3 -33 -1 -49 9 -56 11 -8 10 -9 -4 -4 -10 3 -22 6 -26
6 -4 0 -8 18 -9 40 -2 30 1 40 13 40 8 0 15 5 15 10 0 6 2 10 4 10 2 0 1 -21
-2 -46z m121 -14 c3 -11 1 -20 -4 -20 -5 0 -9 9 -9 20 0 11 2 20 4 20 2 0 6
-9 9 -20z m-3 -41 c0 -5 -11 -9 -25 -9 -22 0 -24 2 -13 19 9 15 15 17 25 9 7
-6 13 -14 13 -19z m1193 -986 c-7 -2 -19 -2 -25 0 -7 3 -2 5 12 5 14 0 19 -2
13 -5z m-63 -28 c-12 -14 -11 -29 5 -67 5 -13 3 -18 -8 -18 -28 0 -36 70 -11
95 20 20 32 11 14 -10z m120 -45 c0 -39 -1 -40 -32 -39 -18 1 -25 3 -15 6 9 2
17 11 17 19 0 8 5 14 11 14 6 0 9 6 6 14 -5 12 0 26 10 26 2 0 3 -18 3 -40z
m1200 -994 c0 -2 -9 -6 -20 -9 -11 -3 -18 -1 -14 4 5 9 34 13 34 5z m-58 -46
c-5 -44 -32 -58 -32 -16 0 33 10 56 24 56 7 0 10 -14 8 -40z m121 -18 c-3 -12
-9 -22 -14 -22 -14 0 -11 38 4 43 16 6 17 5 10 -21z m-110 -39 c-7 -2 -21 -2
-30 0 -10 3 -4 5 12 5 17 0 24 -2 18 -5z m110 0 c-7 -2 -21 -2 -30 0 -10 3 -4
5 12 5 17 0 24 -2 18 -5z m-748 -482 c3 -5 -4 -12 -15 -16 -29 -9 -14 -26 16
-19 30 8 54 -11 54 -40 0 -27 -18 -46 -42 -46 -22 0 -24 26 -2 34 24 9 8 24
-21 18 -44 -8 -73 36 -43 66 14 14 44 16 53 3z m-42 -93 c25 -29 21 -65 -9
-93 -41 -38 -85 -30 -112 22 -15 28 3 81 32 93 29 13 68 3 89 -22z m-198 -38
c3 -5 15 -10 26 -10 16 0 19 -4 14 -21 -9 -27 31 -72 57 -63 13 4 18 0 18 -15
0 -35 -53 -28 -80 9 -12 17 -27 30 -34 30 -16 0 -41 54 -31 69 8 14 22 14 30
1z m19 -112 c23 -32 20 -65 -9 -93 -33 -34 -67 -32 -99 5 -21 26 -24 35 -15
57 16 43 29 53 70 53 28 0 42 -6 53 -22z m-264 -83 l23 -25 20 20 c13 15 25
19 40 14 33 -10 110 -58 115 -72 7 -21 -37 -13 -76 13 -40 27 -57 31 -67 15
-7 -11 16 -52 42 -78 16 -16 17 -29 2 -38 -6 -3 -22 6 -34 20 l-23 27 5 -39
c5 -35 2 -43 -26 -68 -29 -26 -31 -30 -15 -41 16 -12 13 -48 -5 -41 -24 9
-101 114 -101 139 0 41 43 78 86 73 18 -2 34 -3 34 0 0 2 -13 20 -30 41 -46
58 -38 91 10 40z m-5200 -170 c21 7 37 -12 22 -27 -15 -15 36 -70 59 -63 22 7
36 -14 18 -26 -26 -17 -58 -9 -76 17 -9 14 -26 30 -38 34 -23 9 -38 51 -27 78
4 12 7 11 14 -2 6 -11 16 -15 28 -11z m5025 5 c3 -6 17 -7 31 -4 23 6 24 4 18
-20 -8 -34 27 -76 57 -69 13 4 19 0 19 -11 0 -9 -12 -19 -26 -22 -22 -6 -32 0
-58 28 -18 19 -37 37 -43 39 -14 5 -28 69 -14 69 5 0 13 -5 16 -10z m-65 -34
c0 -8 -4 -17 -9 -21 -12 -7 -24 12 -16 25 9 15 25 12 25 -4z m-5042 -8 c-7
-19 -38 -22 -38 -4 0 10 9 16 21 16 12 0 19 -5 17 -12z m72 -78 c34 -41 40
-53 30 -65 -10 -12 -18 -8 -50 27 l-37 41 -23 -21 -24 -22 36 0 c57 0 76 -48
30 -78 -20 -13 -25 -13 -33 -1 -6 10 -2 19 14 32 l22 18 -25 -2 c-40 -4 -70
10 -70 32 0 24 22 49 43 49 8 0 17 9 20 20 8 31 21 25 67 -30z m5050 -1 c28
-32 39 -54 33 -60 -15 -15 -35 -2 -70 45 -61 80 -28 94 37 15z m-2496 26 c19
-14 19 -15 -7 -15 -17 0 -27 5 -27 15 0 19 9 19 34 0z m108 8 c-6 -2 -10 -9
-6 -14 3 -5 -4 -9 -16 -9 -17 0 -19 2 -8 15 7 8 20 14 28 14 10 0 11 -2 2 -6z
m2318 -38 c0 -8 -7 -15 -15 -15 -8 0 -15 -5 -15 -11 0 -6 11 -8 29 -4 20 4 34
1 45 -10 19 -19 20 -29 6 -56 -13 -23 -60 -26 -60 -4 0 8 7 15 15 15 8 0 15 5
15 10 0 6 -15 10 -34 10 -38 0 -53 22 -41 60 8 24 55 28 55 5z m-73 -61 c12
-3 29 -21 38 -40 14 -30 14 -37 1 -63 -16 -30 -54 -46 -87 -36 -16 5 -19 1
-19 -21 0 -16 -11 -39 -26 -55 -22 -23 -24 -29 -13 -48 10 -15 11 -23 2 -32
-8 -8 -20 -1 -44 26 -19 21 -40 44 -46 51 -21 20 -16 81 8 105 16 16 30 20 59
17 37 -3 38 -2 33 24 -4 20 1 33 20 52 27 27 37 30 74 20z m-227 -234 c-7 -55
9 -69 31 -28 11 19 12 20 21 4 16 -28 -26 -66 -74 -66 -36 0 -38 -2 -38 -30 0
-92 -140 -93 -142 -1 -1 26 6 40 26 58 l27 23 -22 31 c-16 23 -19 33 -10 42 9
9 21 1 51 -31 44 -47 50 -50 43 -24 -7 27 34 72 66 72 27 0 27 -1 21 -50z
m-800 -668 c0 -4 -15 -8 -32 -8 -33 1 -33 1 -33 -46 1 -42 -1 -45 -17 -37 -13
7 -18 21 -17 52 0 23 3 36 6 30 3 -10 8 -9 20 2 15 16 73 21 73 7z m-2463 -54
c-3 -7 -5 -2 -5 12 0 14 2 19 5 13 2 -7 2 -19 0 -25z m2509 -33 c-3 -8 -13
-13 -24 -12 -15 1 -17 4 -8 24 10 19 12 20 18 5 5 -12 7 -9 9 13 1 25 2 26 6
7 3 -13 2 -30 -1 -37z m-526 -588 c3 -229 4 -417 2 -417 -1 0 -21 9 -42 20
-130 66 -302 61 -472 -14 -14 -7 -16 -1 -11 48 4 37 2 56 -6 56 -6 0 -34 14
-62 31 -41 26 -53 29 -60 18 -14 -23 -11 -34 21 -65 32 -32 37 -49 17 -57 -7
-3 -22 8 -33 24 -10 16 -23 29 -28 29 -6 0 -5 -5 2 -12 27 -27 -1 -108 -37
-108 -14 0 -14 -3 1 -35 8 -17 8 -29 1 -36 -14 -14 -103 102 -103 136 0 15 11
37 26 52 22 22 31 24 67 19 l42 -7 -30 32 c-17 18 -36 39 -42 47 -18 19 -16
32 3 32 9 0 25 -12 36 -26 20 -25 20 -25 35 -5 19 27 37 26 90 -4 48 -29 53
-26 22 13 -13 18 -18 34 -14 50 7 27 28 52 45 52 15 0 13 517 -2 526 -29 18
39 24 272 21 l255 -2 5 -418z m-880 -396 c0 -4 11 -6 25 -3 27 5 32 -7 13 -26
-16 -16 29 -65 54 -59 23 7 33 -10 18 -28 -20 -24 -33 -18 -88 35 -51 49 -68
90 -37 90 8 0 15 -4 15 -9z m2617 1 c6 -4 -6 -8 -29 -8 -26 -1 -35 2 -27 7 17
11 40 11 56 1z m-81 -28 c-10 -27 4 -60 32 -71 25 -10 25 -11 -8 -5 -41 6 -50
16 -50 60 0 23 5 32 16 32 11 0 14 -5 10 -16z m-2606 -9 c0 -8 -7 -15 -15 -15
-8 0 -15 7 -15 15 0 8 7 15 15 15 8 0 15 -7 15 -15z m2726 -60 c-3 -8 -13 -15
-23 -15 -17 1 -16 2 1 15 11 8 15 15 9 15 -6 0 -10 8 -8 18 2 9 4 22 5 27 1 6
6 -3 12 -18 5 -15 7 -34 4 -42z m-3861 27 c-3 -3 -11 0 -18 7 -9 10 -8 11 6 5
10 -3 15 -9 12 -12z m1175 1 c0 -5 16 -25 35 -47 19 -21 35 -44 35 -52 0 -30
-21 -21 -64 28 -34 39 -43 55 -34 65 11 14 28 17 28 6z m-32 -50 c2 -7 -3 -13
-12 -13 -9 0 -16 -7 -16 -15 0 -11 7 -13 29 -9 22 5 32 1 45 -17 13 -20 14
-26 2 -44 -17 -25 -56 -33 -56 -11 0 9 7 16 15 16 8 0 15 7 15 15 0 11 -7 14
-25 9 -31 -8 -55 10 -55 40 0 39 46 62 58 29z m1093 -20 c13 -16 12 -17 -3 -4
-10 7 -18 15 -18 17 0 8 8 3 21 -13z m-1141 -63 c12 -12 20 -33 20 -55 0 -42
-34 -70 -80 -63 -28 4 -30 2 -30 -25 0 -33 -24 -67 -48 -67 -12 0 -11 -4 3
-26 12 -18 14 -29 6 -37 -12 -12 -29 0 -73 56 -35 44 -39 88 -12 118 18 20 63
30 84 19 13 -7 15 -3 12 25 -7 63 73 100 118 55z m-972 -35 c-3 -3 -9 2 -12
12 -6 14 -5 15 5 6 7 -7 10 -15 7 -18z m2170 0 c-3 -3 -9 2 -12 12 -6 14 -5
15 5 6 7 -7 10 -15 7 -18z m-1448 -179 c-3 -61 -1 -63 21 -37 16 20 22 22 29
11 19 -31 -25 -70 -79 -70 -27 0 -31 -4 -31 -25 0 -14 -12 -37 -26 -52 -20
-20 -31 -24 -57 -19 -37 7 -66 40 -67 74 0 14 13 36 31 53 l32 30 -22 22 c-24
26 -27 43 -8 50 6 2 26 -13 42 -34 17 -21 33 -38 36 -39 4 0 9 14 13 30 4 22
15 35 38 45 43 17 50 12 48 -39z m4794 -153 c4 -4 -3 -15 -16 -25 l-23 -18 41
0 c43 0 54 -11 54 -50 0 -18 -27 -40 -49 -40 -17 0 -13 30 4 36 27 11 16 26
-14 19 -30 -6 -61 14 -61 40 0 29 46 56 64 38z m-47 -99 c44 -44 15 -114 -48
-114 -40 0 -72 31 -72 70 0 65 72 92 120 44z m-193 -41 c4 -4 15 -8 24 -8 11
0 17 -8 17 -21 0 -35 36 -74 62 -68 25 7 30 -5 11 -24 -21 -21 -42 -13 -90 34
-31 30 -48 54 -48 70 0 24 10 31 24 17z m11 -108 c47 -46 19 -115 -45 -115
-44 0 -70 25 -70 67 0 67 68 96 115 48z m-216 -94 c16 26 34 24 102 -12 59
-32 68 -42 49 -54 -10 -6 -22 -1 -95 38 -49 27 -56 -20 -9 -64 26 -24 32 -49
12 -49 -6 0 -21 9 -33 20 l-21 20 4 -35 c3 -29 -1 -40 -26 -63 -29 -27 -30
-30 -14 -45 13 -14 14 -19 4 -29 -11 -11 -20 -5 -48 27 -59 66 -66 81 -59 115
9 41 46 64 91 57 l35 -6 -40 48 c-31 37 -38 50 -28 60 9 9 18 6 38 -17 25 -27
27 -28 38 -11z m-191 -157 c24 8 38 -9 24 -27 -13 -16 31 -69 54 -65 25 5 28
-19 4 -32 -19 -10 -27 -6 -68 31 -50 46 -66 74 -57 98 5 12 8 13 14 2 5 -8 17
-11 29 -7z m-4958 -4 c13 -9 13 -10 0 -9 -8 0 -24 4 -35 9 l-20 9 20 0 c11 0
27 -4 35 -9z m-70 -9 c0 -5 -9 -11 -20 -14 -20 -5 -26 3 -13 16 9 10 33 8 33
-2z m4943 -26 c1 -5 -6 -11 -15 -13 -11 -2 -18 3 -18 13 0 17 30 18 33 0z
m-4825 -30 c-1 -30 -5 -35 -25 -35 -27 0 -27 -1 -7 38 20 42 34 40 32 -3z
m2539 -2 c-3 -10 -5 -4 -5 12 0 17 2 24 5 18 2 -7 2 -21 0 -30z m-2670 -8 c10
-22 9 -25 -8 -25 -14 0 -19 7 -19 25 0 32 12 32 27 0z m5031 -35 c41 -48 47
-70 18 -70 -8 0 -26 17 -42 38 -15 20 -32 40 -37 43 -11 8 -2 39 10 39 4 0 27
-23 51 -50z m-68 -5 c0 -8 -7 -15 -15 -15 -8 0 -15 -4 -15 -10 0 -5 16 -10 35
-10 28 0 38 -5 47 -26 11 -23 10 -29 -11 -46 -25 -19 -42 -20 -48 -1 -2 6 6
13 18 16 12 3 18 10 14 17 -4 6 -15 8 -25 5 -44 -14 -80 41 -48 73 17 17 48
15 48 -3z m-2352 -2 c-16 -2 -40 -2 -55 0 -16 2 -3 4 27 4 30 0 43 -2 28 -4z"/>
<path d="M8646 3958 c-21 -12 -21 -54 1 -67 26 -14 53 5 53 38 0 32 -25 45
-54 29z"/>
<path d="M8457 3803 c-12 -12 -7 -50 8 -63 35 -29 85 26 53 58 -13 13 -50 16
-61 5z"/>
<path d="M8243 3620 c-30 -12 -32 -66 -3 -75 26 -8 60 11 60 35 0 15 -25 52
-33 49 -1 0 -12 -4 -24 -9z"/>
<path d="M7925 3344 c-8 -9 -15 -22 -15 -29 0 -15 27 -45 40 -45 17 0 41 33
38 53 -4 28 -43 41 -63 21z"/>
<path d="M7810 3245 c-19 -23 -4 -65 23 -65 45 0 65 50 28 70 -26 14 -36 13
-51 -5z"/>
<path d="M7701 3146 c-12 -14 -5 -46 9 -46 4 0 10 14 12 30 5 32 -3 38 -21 16z"/>
<path d="M7598 3069 c-44 -25 -3 -93 42 -69 26 14 26 56 1 70 -23 12 -22 12
-43 -1z"/>
<path d="M5931 1631 c-7 -13 -6 -24 4 -37 13 -18 14 -16 15 19 0 41 -5 46 -19
18z"/>
<path d="M5712 1458 c-17 -17 -15 -53 3 -68 12 -10 20 -9 40 4 30 20 33 51 6
66 -25 13 -34 13 -49 -2z"/>
<path d="M5400 1185 c-19 -23 -4 -65 23 -65 42 0 61 38 33 66 -19 18 -40 18
-56 -1z"/>
<path d="M5287 1093 c-15 -15 -7 -62 12 -68 43 -13 86 53 45 69 -21 8 -49 8
-57 -1z"/>
<path d="M5180 991 c-10 -21 -4 -51 11 -51 5 0 9 16 9 35 0 40 -5 43 -20 16z"/>
<path d="M5071 906 c-7 -8 -11 -25 -9 -38 2 -18 9 -23 32 -23 36 0 56 27 40
53 -14 22 -48 27 -63 8z"/>
<path d="M9900 725 c-7 -8 -10 -25 -6 -40 8 -31 50 -35 66 -6 13 25 13 27 -6
45 -19 20 -38 20 -54 1z"/>
<path d="M9720 576 c-19 -23 -8 -61 18 -64 44 -7 67 32 36 62 -19 20 -38 20
-54 2z"/>
<path d="M9492 388 c-20 -20 -14 -58 11 -67 30 -11 46 -4 53 25 11 42 -34 72
-64 42z"/>
<path d="M4313 7636 c-206 -67 -321 -288 -254 -487 52 -154 178 -252 341 -266
161 -13 307 74 379 226 23 49 26 68 26 161 0 96 -3 110 -29 165 -35 71 -115
153 -183 185 -60 29 -213 38 -280 16z m228 -144 c153 -80 185 -273 65 -400
-52 -56 -101 -76 -181 -76 -78 0 -130 20 -182 73 -113 113 -90 309 46 395 46
30 61 33 137 35 50 1 72 -5 115 -27z"/>
<path d="M4371 7382 c-67 -34 -91 -100 -62 -170 49 -118 241 -78 241 50 0 54
-27 100 -73 121 -44 21 -64 21 -106 -1z"/>
<path d="M5118 7498 c-2 -84 -2 -258 0 -385 l3 -233 378 0 c350 0 384 2 442
20 118 37 210 127 249 246 61 182 -25 386 -199 472 l-56 27 -407 3 -407 3 -3
-153z m827 -10 c59 -38 85 -66 106 -112 29 -66 33 -117 15 -180 -32 -109 -125
-179 -239 -178 -274 0 -353 357 -107 480 63 31 168 26 225 -10z"/>
<path d="M5774 7390 c-31 -12 -72 -66 -79 -104 -20 -105 107 -184 203 -126 37
23 54 58 54 112 1 87 -96 151 -178 118z"/>
<path d="M4844 7105 c-16 -14 -24 -25 -19 -25 14 1 59 39 53 45 -3 3 -18 -6
-34 -20z"/>
<path d="M4770 7046 c0 -2 7 -7 16 -10 8 -3 12 -2 9 4 -6 10 -25 14 -25 6z"/>
<path d="M4745 7010 c-10 -11 -15 -20 -11 -20 11 0 39 30 34 36 -3 2 -13 -5
-23 -16z"/>
<path d="M4705 6960 c-16 -7 -17 -9 -3 -9 9 -1 20 4 23 9 7 11 7 11 -20 0z"/>
<path d="M4665 6930 c-3 -5 -2 -10 4 -10 5 0 13 5 16 10 3 6 2 10 -4 10 -5 0
-13 -4 -16 -10z"/>
<path d="M5172 6524 c-47 -32 -18 -114 40 -114 55 0 81 77 38 112 -27 22 -49
23 -78 2z"/>
<path d="M5352 6524 c-44 -30 -19 -114 34 -114 11 0 30 7 42 16 45 31 18 114
-38 114 -9 0 -26 -7 -38 -16z"/>
<path d="M5538 6529 c-29 -17 -39 -44 -27 -76 12 -33 26 -43 60 -43 54 0 79
70 39 110 -22 22 -46 25 -72 9z"/>
<path d="M4630 6512 c0 -7 11 -18 25 -24 14 -6 25 -15 25 -20 0 -4 5 -8 10 -8
19 0 10 17 -17 31 -16 8 -31 18 -35 24 -5 6 -8 5 -8 -3z"/>
<path d="M5475 5399 c-91 -90 -126 -131 -122 -143 4 -9 1 -16 -6 -17 -7 -1
-18 -2 -26 -3 -8 0 -16 -6 -18 -11 -2 -6 71 -84 162 -175 l165 -165 0 321 c0
265 -2 321 -14 321 -7 0 -71 -58 -141 -128z"/>
<path d="M4655 5460 c3 -5 8 -10 11 -10 2 0 4 5 4 10 0 6 -5 10 -11 10 -5 0
-7 -4 -4 -10z"/>
<path d="M4735 5380 c3 -5 8 -10 11 -10 2 0 4 5 4 10 0 6 -5 10 -11 10 -5 0
-7 -4 -4 -10z"/>
<path d="M4815 5300 c3 -5 8 -10 11 -10 2 0 4 5 4 10 0 6 -5 10 -11 10 -5 0
-7 -4 -4 -10z"/>
<path d="M4890 5223 c0 -1 8 -7 18 -12 13 -7 19 -6 19 2 0 7 -9 13 -19 13 -10
0 -18 -1 -18 -3z"/>
<path d="M10073 5185 c-26 -29 -7 -65 34 -65 32 0 46 31 27 58 -17 25 -43 28
-61 7z"/>
<path d="M4725 5019 c-4 -6 -5 -12 -2 -15 2 -3 7 2 10 11 7 17 1 20 -8 4z"/>
<path d="M4643 4959 c3 -9 0 -22 -6 -28 -8 -8 -8 -11 0 -11 16 0 23 25 11 41
-8 11 -9 11 -5 -2z"/>
<path d="M5121 4525 c2 -122 3 -125 23 -119 85 25 121 106 82 182 -16 32 -61
62 -91 62 -14 0 -16 -17 -14 -125z"/>
<path d="M5120 4315 c-1 -3 -1 -45 -1 -95 0 -151 0 -150 16 -150 29 0 66 24
87 58 39 64 20 145 -43 178 -28 14 -59 19 -59 9z"/>
<path d="M5021 4263 c-1 -17 16 -25 25 -12 4 7 3 9 -4 5 -5 -3 -13 0 -15 6 -4
9 -6 10 -6 1z"/>
<path d="M5000 4171 c0 -6 4 -13 10 -16 6 -3 7 1 4 9 -7 18 -14 21 -14 7z"/>
<path d="M5030 4171 c0 -6 4 -13 10 -16 6 -3 7 1 4 9 -7 18 -14 21 -14 7z"/>
<path d="M3182 3608 c-27 -27 -6 -68 35 -68 26 0 43 44 24 63 -16 16 -46 18
-59 5z"/>
<path d="M2877 3344 c-15 -15 -7 -63 12 -69 33 -10 52 5 49 39 -2 25 -8 32
-28 34 -14 2 -29 0 -33 -4z"/>
<path d="M2822 3220 c0 -14 2 -19 5 -12 2 6 2 18 0 25 -3 6 -5 1 -5 -13z"/>
<path d="M9180 115 c-20 -24 3 -65 35 -65 18 0 26 7 31 25 11 45 -37 74 -66
40z"/>
<path d="M9075 20 c-18 -20 -17 -20 23 -20 45 0 54 13 23 30 -26 13 -25 13
-46 -10z"/>
</g>
</svg>
